# xmcd
#
# Track frame offsets: 
#        150
#        8111
#        21769
#        35788
#        49075
#        63487
#        73491
#        89927
#        109647
#        117195
#        124730
#        136754
#        147947
#        161205
#        171909
#        184602
#        201077
#        211750
#        219509
#        234316
#        244837
#        257197
#        269322
#
# Disc length: 3801 seconds
#
# Revision: 0
# Processed by: cddbd v1.5.2PL0 Copyright (c) Steve Scherf et al.
# Submitted via: ExactAudioCopy v0.99pb4
#
DISCID=5d0ed717
DTITLE=Algirdas Klova - ALGIRDAS KLOVA and ...
DYEAR=2004
DGENRE=Country
TTITLE0=I do not love nobody
TTITLE1=Somebody is missing You
TTITLE2=Trouble in mind
TTITLE3=Prazydo zeme
TTITLE4=Will the circle be unbroken
TTITLE5=Bill Cheatham
TTITLE6=Can´t you hear me calling
TTITLE7=Jambalaya
TTITLE8=Bluegrass style
TTITLE9=Shame
TTITLE10=Home on the hill
TTITLE11=Back to the mountain
TTITLE12=Shake hands with mother again
TTITLE13=Fill my way
TTITLE14=South mountain walz
TTITLE15=Big wheel cannon ball
TTITLE16=Old man on the mountain
TTITLE17=The drinking person
TTITLE18=One golden curl
TTITLE19=Shoo shoo shoolala
TTITLE20=Lithuanian valley
TTITLE21=Vasara, Vasara, Vasara
TTITLE22=Poor wayfaring stranger
EXTD=
EXTT0=
EXTT1=
EXTT2=
EXTT3=
EXTT4=
EXTT5=
EXTT6=
EXTT7=
EXTT8=
EXTT9=
EXTT10=
EXTT11=
EXTT12=
EXTT13=
EXTT14=
EXTT15=
EXTT16=
EXTT17=
EXTT18=
EXTT19=
EXTT20=
EXTT21=
EXTT22=
PLAYORDER=
